<svg width="368" height="612" viewBox="0 0 368 612" fill="none" xmlns="http://www.w3.org/2000/svg">
<g clip-path="url(#clip0_3440_44298)" filter="url(#filter0_n_3440_44298)">
<rect width="612" height="368" transform="matrix(0 -1 1 0 0 612)" fill="#3F1536"/>
<g filter="url(#filter1_f_3440_44298)">
<path d="M430.105 438.162C393.972 493.782 258.724 449.265 195.617 420.054C190.299 409.485 187.291 384.665 217.804 369.942C255.944 351.537 244.161 298.92 195.591 236.999C147.02 175.078 75.033 44.6203 127.031 5.58501C179.029 -33.4503 231.22 7.65707 310.742 66.4404C390.263 125.224 327.626 154.895 398.87 216.799C470.113 278.704 475.272 368.636 430.105 438.162Z" fill="#0C0F0A"/>
<path d="M-22.6218 203.977C6.95481 132.166 85.3275 195.634 144.634 201.171C132.626 228.593 114.783 290.822 139.477 320.361C170.345 357.284 234.712 392.493 255.978 459.717C277.244 526.941 169.716 589.08 139.134 579.751C108.553 570.421 60.0926 536.072 106.026 540.147C151.96 544.222 149.514 463.781 94.7241 380.074C39.9341 296.367 -52.1984 275.788 -22.6218 203.977Z" fill="#3F1536"/>
<path d="M104.039 -53.073C150.711 -48.5254 202.855 21.8438 252.582 97.9161C249.418 106.906 235.093 125.757 203.102 129.244C163.114 133.602 127.497 189.469 126.705 271.927C125.912 354.385 113.993 366.165 35.0043 338.365C-43.9849 310.566 -102.951 253.77 -86.3627 247.32C-69.7746 240.87 -19.5608 137.713 11.7984 88.1306C43.1575 38.5477 57.3663 -57.6206 104.039 -53.073Z" fill="#3F1536"/>
</g>
<g style="mix-blend-mode:color-dodge" filter="url(#filter2_f_3440_44298)">
<path d="M455.501 346.149C483.763 406.153 374.706 497.697 316.646 535.969C304.86 534.925 282.175 524.414 285.723 490.722C290.158 448.606 239.22 430.92 161.004 439.611C82.7874 448.302 -66.0254 440.815 -71.8345 376.056C-77.6435 311.296 -15.2159 288.568 76.6288 251.912C168.473 215.255 160.72 284.13 250.86 256.154C340.999 228.178 420.173 271.143 455.501 346.149Z" fill="#0E186F"/>
<path d="M282.444 195.761C348.034 194.107 325.736 276.335 341.7 324.056C316.409 324.136 262.23 331.587 247.831 360.752C229.833 397.209 224.594 458.968 179.902 498.346C135.211 537.725 50.4898 475.837 47.2615 449.02C44.0333 422.203 54.0374 373.03 66.5661 409.917C79.0948 446.805 140.424 417.459 186.411 346.548C232.398 275.637 216.855 197.414 282.444 195.761Z" fill="#3F1536"/>
<path d="M-6.26737 125.674C20.4593 96.1671 94.8154 96.2534 171.835 100.873C176.36 107.581 181.956 126.887 168.137 150.455C150.864 179.914 170.908 232.47 226.705 274.754C282.501 317.038 284.496 331.124 225.562 370.885C166.629 410.645 98.0694 422.08 102.071 407.509C106.073 392.939 61.1887 306.494 43.2716 260.021C25.3546 213.548 -32.9941 155.18 -6.26737 125.674Z" fill="#3F1536"/>
</g>
</g>
<defs>
<filter id="filter0_n_3440_44298" x="0" y="0" width="368" height="612" filterUnits="userSpaceOnUse" color-interpolation-filters="sRGB">
<feFlood flood-opacity="0" result="BackgroundImageFix"/>
<feBlend mode="normal" in="SourceGraphic" in2="BackgroundImageFix" result="shape"/>
<feTurbulence type="fractalNoise" baseFrequency="2 2" stitchTiles="stitch" numOctaves="3" result="noise" seed="3545" />
<feColorMatrix in="noise" type="luminanceToAlpha" result="alphaNoise" />
<feComponentTransfer in="alphaNoise" result="coloredNoise1">
<feFuncA type="discrete" tableValues="0 0 0 0 0 0 0 0 0 0 0 0 0 0 0 0 0 1 1 1 1 1 1 1 1 1 1 1 1 1 1 1 1 0 0 0 0 0 0 0 0 0 0 0 0 0 0 0 0 0 0 0 0 0 0 0 0 0 0 0 0 0 0 0 0 0 0 0 0 0 0 0 0 0 0 0 0 0 0 0 0 0 0 0 0 0 0 0 0 0 0 0 0 0 0 0 0 0 0 0 "/>
</feComponentTransfer>
<feComposite operator="in" in2="shape" in="coloredNoise1" result="noise1Clipped" />
<feFlood flood-color="rgba(255, 255, 255, 0.1)" result="color1Flood" />
<feComposite operator="in" in2="noise1Clipped" in="color1Flood" result="color1" />
<feMerge result="effect1_noise_3440_44298">
<feMergeNode in="shape" />
<feMergeNode in="color1" />
</feMerge>
</filter>
<filter id="filter1_f_3440_44298" x="-224.172" y="-207.046" width="881.158" height="954.046" filterUnits="userSpaceOnUse" color-interpolation-filters="sRGB">
<feFlood flood-opacity="0" result="BackgroundImageFix"/>
<feBlend mode="normal" in="SourceGraphic" in2="BackgroundImageFix" result="shape"/>
<feGaussianBlur stdDeviation="67.5" result="effect1_foregroundBlur_3440_44298"/>
</filter>
<filter id="filter2_f_3440_44298" x="-192.209" y="-192.046" width="834.195" height="924.046" filterUnits="userSpaceOnUse" color-interpolation-filters="sRGB">
<feFlood flood-opacity="0" result="BackgroundImageFix"/>
<feBlend mode="normal" in="SourceGraphic" in2="BackgroundImageFix" result="shape"/>
<feGaussianBlur stdDeviation="60" result="effect1_foregroundBlur_3440_44298"/>
</filter>
<clipPath id="clip0_3440_44298">
<rect width="612" height="368" fill="white" transform="matrix(0 -1 1 0 0 612)"/>
</clipPath>
</defs>
</svg>
