<svg width="368" height="612" viewBox="0 0 368 612" fill="none" xmlns="http://www.w3.org/2000/svg">
<g clip-path="url(#clip0_3440_44289)" filter="url(#filter0_n_3440_44289)">
<rect width="612" height="368" transform="matrix(0 -1 1 0 0 612)" fill="#3F1536"/>
<g filter="url(#filter1_f_3440_44289)">
<path d="M306.938 637.093C256.285 679.913 139.65 598.245 87.6636 552.058C85.6234 540.403 89.9092 515.772 123.373 510.485C165.203 503.875 169.113 450.097 140.487 376.79C111.862 303.483 80.6042 157.797 141.658 135.436C202.711 113.076 240.812 167.501 299.976 246.739C359.14 325.978 290.604 336.302 340.942 416.139C391.28 495.975 370.254 583.567 306.938 637.093Z" fill="#0C0F0A"/>
<path d="M132.306 42.2044C161.883 -29.6069 240.255 33.8614 299.562 39.3983C287.554 66.8206 269.711 129.05 294.405 158.588C325.273 195.512 389.64 230.72 410.906 297.945C432.172 365.169 324.644 427.308 294.062 417.978C263.48 408.649 215.02 374.3 260.954 378.375C306.887 382.45 304.442 302.008 249.652 218.302C194.862 134.595 102.729 114.016 132.306 42.2044Z" fill="#3F1536"/>
<path d="M99.7691 114.13C146.441 118.678 198.585 189.047 248.312 265.119C245.149 274.109 230.823 292.96 198.832 296.447C158.844 300.805 123.228 356.672 122.435 439.13C121.642 521.588 109.724 533.368 30.7348 505.569C-48.2544 477.769 -107.22 420.973 -90.6322 414.523C-74.0441 408.074 -23.8303 304.917 7.52885 255.334C38.888 205.751 53.0968 109.583 99.7691 114.13Z" fill="#3F1536"/>
</g>
<g style="mix-blend-mode:color-dodge" filter="url(#filter2_f_3440_44289)">
<path d="M306.938 637.093C256.285 679.913 139.65 598.245 87.6636 552.058C85.6234 540.403 89.9092 515.772 123.373 510.485C165.203 503.875 169.113 450.097 140.487 376.79C111.862 303.483 80.6042 157.797 141.658 135.436C202.711 113.076 240.812 167.501 299.976 246.739C359.14 325.978 290.604 336.302 340.942 416.139C391.28 495.975 370.254 583.567 306.938 637.093Z" fill="#0E186F"/>
<path d="M132.306 42.2044C161.883 -29.6069 240.255 33.8614 299.562 39.3983C287.554 66.8206 269.711 129.05 294.405 158.588C325.273 195.512 389.64 230.72 410.906 297.945C432.172 365.169 324.644 427.308 294.062 417.978C263.48 408.649 215.02 374.3 260.954 378.375C306.887 382.45 304.442 302.008 249.652 218.302C194.862 134.595 102.729 114.016 132.306 42.2044Z" fill="#3F1536"/>
<path d="M99.7691 114.13C146.441 118.678 198.585 189.047 248.312 265.119C245.149 274.109 230.823 292.96 198.832 296.447C158.844 300.805 123.228 356.672 122.435 439.13C121.642 521.588 109.724 533.368 30.7348 505.569C-48.2544 477.769 -107.22 420.973 -90.6322 414.523C-74.0441 408.074 -23.8303 304.917 7.52885 255.334C38.888 205.751 53.0968 109.583 99.7691 114.13Z" fill="#3F1536"/>
</g>
</g>
<defs>
<filter id="filter0_n_3440_44289" x="0" y="0" width="368" height="612" filterUnits="userSpaceOnUse" color-interpolation-filters="sRGB">
<feFlood flood-opacity="0" result="BackgroundImageFix"/>
<feBlend mode="normal" in="SourceGraphic" in2="BackgroundImageFix" result="shape"/>
<feTurbulence type="fractalNoise" baseFrequency="2 2" stitchTiles="stitch" numOctaves="3" result="noise" seed="3545" />
<feColorMatrix in="noise" type="luminanceToAlpha" result="alphaNoise" />
<feComponentTransfer in="alphaNoise" result="coloredNoise1">
<feFuncA type="discrete" tableValues="0 0 0 0 0 0 0 0 0 0 0 0 0 0 0 0 0 1 1 1 1 1 1 1 1 1 1 1 1 1 1 1 1 0 0 0 0 0 0 0 0 0 0 0 0 0 0 0 0 0 0 0 0 0 0 0 0 0 0 0 0 0 0 0 0 0 0 0 0 0 0 0 0 0 0 0 0 0 0 0 0 0 0 0 0 0 0 0 0 0 0 0 0 0 0 0 0 0 0 0 "/>
</feComponentTransfer>
<feComposite operator="in" in2="shape" in="coloredNoise1" result="noise1Clipped" />
<feFlood flood-color="rgba(255, 255, 255, 0.1)" result="color1Flood" />
<feComposite operator="in" in2="noise1Clipped" in="color1Flood" result="color1" />
<feMerge result="effect1_noise_3440_44289">
<feMergeNode in="shape" />
<feMergeNode in="color1" />
</feMerge>
</filter>
<filter id="filter1_f_3440_44289" x="-228.441" y="-207.046" width="885.428" height="991.175" filterUnits="userSpaceOnUse" color-interpolation-filters="sRGB">
<feFlood flood-opacity="0" result="BackgroundImageFix"/>
<feBlend mode="normal" in="SourceGraphic" in2="BackgroundImageFix" result="shape"/>
<feGaussianBlur stdDeviation="67.5" result="effect1_foregroundBlur_3440_44289"/>
</filter>
<filter id="filter2_f_3440_44289" x="-213.441" y="-192.046" width="855.428" height="961.175" filterUnits="userSpaceOnUse" color-interpolation-filters="sRGB">
<feFlood flood-opacity="0" result="BackgroundImageFix"/>
<feBlend mode="normal" in="SourceGraphic" in2="BackgroundImageFix" result="shape"/>
<feGaussianBlur stdDeviation="60" result="effect1_foregroundBlur_3440_44289"/>
</filter>
<clipPath id="clip0_3440_44289">
<rect width="612" height="368" fill="white" transform="matrix(0 -1 1 0 0 612)"/>
</clipPath>
</defs>
</svg>
