<svg width="25" height="25" viewBox="0 0 25 25" fill="none" xmlns="http://www.w3.org/2000/svg">
<g clip-path="url(#clip0_3982_5767)">
<path d="M12.9805 2.22941C16.1845 2.22941 16.5645 2.24141 17.8305 2.29941C21.0825 2.44741 22.6015 3.99041 22.7495 7.21841C22.8075 8.48341 22.8185 8.86341 22.8185 12.0674C22.8185 15.2724 22.8065 15.6514 22.7495 16.9164C22.6005 20.1414 21.0855 21.6874 17.8305 21.8354C16.5645 21.8934 16.1865 21.9054 12.9805 21.9054C9.77647 21.9054 9.39647 21.8934 8.13147 21.8354C4.87147 21.6864 3.36047 20.1364 3.21247 16.9154C3.15447 15.6504 3.14247 15.2714 3.14247 12.0664C3.14247 8.86241 3.15547 8.48341 3.21247 7.21741C3.36147 3.99041 4.87647 2.44641 8.13147 2.29841C9.39747 2.24141 9.77647 2.22941 12.9805 2.22941ZM12.9805 0.0664063C9.72147 0.0664063 9.31347 0.0804062 8.03347 0.138406C3.67547 0.338406 1.25347 2.75641 1.05347 7.11841C0.994469 8.39941 0.980469 8.80741 0.980469 12.0664C0.980469 15.3254 0.994469 15.7344 1.05247 17.0144C1.25247 21.3724 3.67047 23.7944 8.03247 23.9944C9.31347 24.0524 9.72147 24.0664 12.9805 24.0664C16.2395 24.0664 16.6485 24.0524 17.9285 23.9944C22.2825 23.7944 24.7105 21.3764 24.9075 17.0144C24.9665 15.7344 24.9805 15.3254 24.9805 12.0664C24.9805 8.80741 24.9665 8.39941 24.9085 7.11941C24.7125 2.76541 22.2915 0.339406 17.9295 0.139406C16.6485 0.0804062 16.2395 0.0664063 12.9805 0.0664063ZM12.9805 5.90441C9.57747 5.90441 6.81847 8.66341 6.81847 12.0664C6.81847 15.4694 9.57747 18.2294 12.9805 18.2294C16.3835 18.2294 19.1425 15.4704 19.1425 12.0664C19.1425 8.66341 16.3835 5.90441 12.9805 5.90441ZM12.9805 16.0664C10.7715 16.0664 8.98047 14.2764 8.98047 12.0664C8.98047 9.85741 10.7715 8.06641 12.9805 8.06641C15.1895 8.06641 16.9805 9.85741 16.9805 12.0664C16.9805 14.2764 15.1895 16.0664 12.9805 16.0664ZM19.3865 4.22141C18.5905 4.22141 17.9455 4.86641 17.9455 5.66141C17.9455 6.45641 18.5905 7.10141 19.3865 7.10141C20.1815 7.10141 20.8255 6.45641 20.8255 5.66141C20.8255 4.86641 20.1815 4.22141 19.3865 4.22141Z" fill="white"/>
</g>
<defs>
<clipPath id="clip0_3982_5767">
<rect width="24" height="24" fill="white" transform="translate(0.980469 0.0664062)"/>
</clipPath>
</defs>
</svg>
