<svg width="230" height="41" viewBox="0 0 230 41" fill="none" xmlns="http://www.w3.org/2000/svg">
<path d="M14.4606 23.4713C14.7043 23.4716 14.9326 23.5909 15.0719 23.7909L18.6416 28.918C19.0601 29.5187 19.7362 29.875 20.4561 29.875C21.1534 29.8749 21.8088 29.5399 22.2295 28.9727L22.2695 28.918L25.8505 23.7761C25.9833 23.5854 26.201 23.4717 26.4335 23.4717V23.4717C26.8261 23.4717 27.1443 23.7901 27.1439 24.1827L27.136 33.3358C27.1352 34.247 26.7789 35.1219 26.1429 35.7744L22.9887 39.01C21.616 40.4182 19.3526 40.4183 17.9797 39.0103L14.7596 35.7077C14.1276 35.0595 13.7715 34.1914 13.7663 33.286L13.7143 24.2213C13.7119 23.8076 14.0468 23.471 14.4606 23.4713V23.4713ZM31.3238 9.60549C31.5325 9.81961 31.6494 10.1068 31.6494 10.4059V29.6595C31.6494 29.9586 31.5326 30.2458 31.3238 30.4599V30.4599C30.605 31.197 29.3543 30.6867 29.3564 29.6571L29.3679 24.1159C29.3713 22.498 28.0606 21.1846 26.4427 21.1846V21.1846C25.4856 21.1846 24.589 21.6528 24.0421 22.4382L23.3264 23.4659C21.9347 25.4645 18.9774 25.4645 17.5857 23.4659L16.8659 22.4322C16.3215 21.6505 15.4293 21.1846 14.4767 21.1846V21.1846C12.8689 21.1846 11.5654 22.488 11.5654 24.0959V29.7125C11.5654 30.7043 10.3605 31.1943 9.66829 30.4841V30.4841C9.46709 30.2776 9.35449 30.0008 9.35449 29.7125V10.3529C9.35449 10.0646 9.46709 9.78779 9.66829 9.58135V9.58135C10.3605 8.87112 11.5654 9.36118 11.5654 10.3529V15.6419C11.5654 17.4404 13.0234 18.8984 14.8219 18.8984H15.5777C16.5416 18.8984 17.4478 19.3584 18.0168 20.1365V20.1365C19.2239 21.7869 21.6878 21.7871 22.8946 20.1365V20.1365C23.4635 19.3584 24.3696 18.8984 25.3335 18.8984H26.1034C27.9086 18.8984 29.371 17.433 29.3672 15.6278L29.3564 10.4083C29.3543 9.37876 30.605 8.8684 31.3238 9.60549V9.60549ZM35.7575 14.1536C35.9587 14.3601 36.0713 14.6369 36.0713 14.9252V25.1403C36.0713 25.4285 35.9587 25.7054 35.7575 25.9118V25.9118C35.0653 26.622 33.8604 26.132 33.8604 25.1403V14.9252C33.8604 13.9334 35.0653 13.4434 35.7575 14.1536V14.1536ZM7.05078 25.0825C7.05078 26.0741 5.84607 26.5642 5.15381 25.8542V25.8542C4.95251 25.6478 4.83984 25.3708 4.83984 25.0825V14.9829C4.83984 14.6946 4.95251 14.4177 5.15381 14.2112V14.2112C5.84607 13.5012 7.05078 13.9913 7.05078 14.9829V25.0825ZM40.5786 19.099C41.0853 19.6187 41.0852 20.4476 40.5785 20.9673V20.9673C39.7405 21.8267 38.2822 21.2334 38.2822 20.0331V20.0331C38.2822 18.8326 39.7407 18.2394 40.5786 19.099V19.099ZM2.62891 20.0331C2.62891 21.2121 1.19655 21.7949 0.373368 20.9508V20.9508C-0.124458 20.4403 -0.12452 19.626 0.373229 19.1155V19.1155C1.19635 18.2712 2.62891 18.8539 2.62891 20.0331V20.0331ZM26.1427 4.29103C26.7788 4.94351 27.1352 5.81848 27.136 6.72973L27.1416 13.2666C27.1432 15.1134 25.6466 16.6113 23.7998 16.6113V16.6113C23.0981 16.6114 22.4376 16.9506 22.0166 17.5264V17.5264C21.2441 18.5826 19.6673 18.5823 18.8945 17.5264V17.5264C18.4735 16.9505 17.8131 16.6113 17.1113 16.6113V16.6113C15.2645 16.6113 13.7678 15.1134 13.7692 13.2666L13.7743 6.78871C13.775 5.87723 14.1315 5.00203 14.7678 4.34946L17.9799 1.05557C19.3527 -0.352227 21.6159 -0.352104 22.9886 1.05584L26.1427 4.29103Z" fill="#F5F5F5"/>
<path d="M48.959 11.0875C48.959 9.87285 49.191 8.7333 49.655 7.66882C50.119 6.60434 50.7468 5.67633 51.5383 4.88479C52.3435 4.0796 53.2783 3.44501 54.3428 2.981C55.4073 2.517 56.5468 2.28499 57.7614 2.28499H71.2312V8.16012H57.7614C57.352 8.16012 56.9699 8.23518 56.6151 8.3853C56.2602 8.53542 55.9464 8.74695 55.6734 9.0199C55.4141 9.27919 55.2094 9.58626 55.0593 9.94108C54.9092 10.2959 54.8341 10.678 54.8341 11.0875C54.8341 11.4969 54.9092 11.8858 55.0593 12.2543C55.2094 12.6091 55.4141 12.923 55.6734 13.1959C55.9464 13.4552 56.2602 13.66 56.6151 13.8101C56.9699 13.9602 57.352 14.0352 57.7614 14.0352H63.6366C64.8512 14.0352 65.9907 14.2673 67.0552 14.7313C68.1333 15.1816 69.0682 15.8094 69.8597 16.6146C70.6649 17.4061 71.2927 18.3409 71.743 19.4191C72.207 20.4836 72.439 21.6231 72.439 22.8377C72.439 24.0523 72.207 25.1919 71.743 26.2563C71.2927 27.3208 70.6649 28.2557 69.8597 29.0608C69.0682 29.8524 68.1333 30.4801 67.0552 30.9442C65.9907 31.4082 64.8512 31.6402 63.6366 31.6402H50.5967V25.765H63.6366C64.046 25.765 64.4281 25.69 64.7829 25.5399C65.1378 25.3897 65.4448 25.185 65.7041 24.9257C65.9771 24.6528 66.1886 24.3389 66.3387 23.9841C66.4888 23.6292 66.5639 23.2471 66.5639 22.8377C66.5639 22.4283 66.4888 22.0462 66.3387 21.6913C66.1886 21.3365 65.9771 21.0294 65.7041 20.7702C65.4448 20.4972 65.1378 20.2857 64.7829 20.1356C64.4281 19.9854 64.046 19.9104 63.6366 19.9104H57.7614C56.5468 19.9104 55.4073 19.6784 54.3428 19.2144C53.2783 18.7504 52.3435 18.1226 51.5383 17.3311C50.7468 16.5259 50.119 15.591 49.655 14.5266C49.191 13.4484 48.959 12.3021 48.959 11.0875Z" fill="#F5F5F5"/>
<path d="M80.5054 31.6402H74.8759V0.995332H80.5054V31.6402Z" fill="#F5F5F5"/>
<path d="M105.174 31.6402H103.822L101.653 28.631C101.12 29.1086 100.554 29.559 99.9535 29.982C99.3666 30.3914 98.7457 30.7531 98.0906 31.067C97.4355 31.3672 96.76 31.606 96.064 31.7835C95.3816 31.9609 94.6856 32.0496 93.976 32.0496C92.4338 32.0496 90.9804 31.7903 89.6157 31.2717C88.2646 30.7531 87.0773 30.0025 86.0538 29.0199C85.0439 28.0236 84.2455 26.809 83.6587 25.3761C83.0718 23.9431 82.7784 22.3123 82.7784 20.4836C82.7784 18.7777 83.0718 17.2151 83.6587 15.7957C84.2455 14.3628 85.0439 13.1345 86.0538 12.111C87.0773 11.0875 88.2646 10.2959 89.6157 9.73638C90.9804 9.16319 92.4338 8.8766 93.976 8.8766C94.6856 8.8766 95.3885 8.96531 96.0845 9.14272C96.7805 9.32014 97.456 9.56579 98.1111 9.87967C98.7662 10.1936 99.3871 10.562 99.9739 10.9851C100.574 11.4082 101.134 11.8653 101.653 12.3566L103.822 9.75685H105.174V31.6402ZM99.544 20.4836C99.544 19.7193 99.3939 18.9824 99.0937 18.2727C98.8071 17.5494 98.4113 16.9148 97.9064 16.3689C97.4014 15.8094 96.8078 15.3659 96.1254 15.0383C95.4567 14.6971 94.7402 14.5266 93.976 14.5266C93.2117 14.5266 92.4884 14.6562 91.8061 14.9155C91.1374 15.1748 90.5505 15.5569 90.0456 16.0619C89.5543 16.5668 89.1653 17.1946 88.8787 17.9452C88.5921 18.6821 88.4489 19.5283 88.4489 20.4836C88.4489 21.4389 88.5921 22.2918 88.8787 23.0424C89.1653 23.7794 89.5543 24.4003 90.0456 24.9053C90.5505 25.4102 91.1374 25.7923 91.8061 26.0516C92.4884 26.3109 93.2117 26.4406 93.976 26.4406C94.7402 26.4406 95.4567 26.2768 96.1254 25.9493C96.8078 25.6081 97.4014 25.1646 97.9064 24.6187C98.4113 24.0591 98.8071 23.4245 99.0937 22.7149C99.3939 21.9916 99.544 21.2478 99.544 20.4836Z" fill="#F5F5F5"/>
<path d="M113.895 39.9923V34.3628L117.006 34.4037C117.552 34.4037 118.078 34.315 118.583 34.1376C119.088 33.9602 119.552 33.7145 119.975 33.4007C120.411 33.0868 120.794 32.7115 121.121 32.2748C121.449 31.8517 121.715 31.3877 121.919 30.8827C121.305 31.142 120.678 31.4013 120.036 31.6606C119.408 31.9199 118.774 32.0496 118.132 32.0496C116.781 32.0496 115.512 31.8108 114.325 31.3331C113.137 30.8554 112.093 30.1799 111.193 29.3065C110.306 28.4194 109.603 27.3481 109.084 26.0926C108.579 24.8234 108.327 23.4041 108.327 21.8346V9.71591H113.895V21.8346C113.895 22.6125 114.004 23.2949 114.222 23.8817C114.454 24.4549 114.762 24.9394 115.144 25.3351C115.526 25.7173 115.969 26.0039 116.474 26.1949C116.993 26.386 117.546 26.4815 118.132 26.4815C118.706 26.4815 119.245 26.3519 119.75 26.0926C120.268 25.8196 120.719 25.4648 121.101 25.0281C121.483 24.5914 121.783 24.1001 122.001 23.5542C122.22 22.9946 122.329 22.4215 122.329 21.8346V9.71591H127.958V28.8766C127.945 30.4187 127.644 31.8653 127.058 33.2164C126.471 34.5675 125.666 35.748 124.642 36.7579C123.632 37.7678 122.452 38.5661 121.101 39.153C119.75 39.7398 118.303 40.0332 116.761 40.0332L113.895 39.9923Z" fill="#F5F5F5"/>
<path d="M137.867 31.6402H131.992V2.28499H152.545V8.16012H137.867V14.0352H146.67V19.9104H137.867V31.6402Z" fill="#F5F5F5"/>
<path d="M160.734 3.75889C160.734 4.27749 160.631 4.76196 160.427 5.21232C160.236 5.66268 159.97 6.05845 159.628 6.39963C159.287 6.72716 158.885 6.99328 158.421 7.19799C157.97 7.38905 157.486 7.48458 156.967 7.48458C156.449 7.48458 155.957 7.38905 155.493 7.19799C155.043 6.99328 154.647 6.72716 154.306 6.39963C153.978 6.05845 153.712 5.66268 153.508 5.21232C153.317 4.76196 153.221 4.27749 153.221 3.75889C153.221 3.25395 153.317 2.77629 153.508 2.32594C153.712 1.86193 153.978 1.46616 154.306 1.13863C154.647 0.797447 155.043 0.531327 155.493 0.340266C155.957 0.135557 156.449 0.0332031 156.967 0.0332031C157.486 0.0332031 157.97 0.135557 158.421 0.340266C158.885 0.531327 159.287 0.797447 159.628 1.13863C159.97 1.46616 160.236 1.86193 160.427 2.32594C160.631 2.77629 160.734 3.25395 160.734 3.75889ZM159.772 31.6402H154.142V9.71591H159.772V31.6402Z" fill="#F5F5F5"/>
<path d="M174.204 31.6402C172.853 31.6402 171.584 31.3877 170.397 30.8827C169.21 30.3641 168.166 29.6613 167.265 28.7742C166.378 27.8735 165.675 26.8295 165.156 25.6422C164.651 24.4549 164.399 23.1857 164.399 21.8346V15.3249H161.676V9.75685H164.399V0.995332H169.967V9.75685H178.442V15.3249H169.967V21.8346C169.967 22.4215 170.076 22.9742 170.295 23.4928C170.513 23.9977 170.813 24.4413 171.195 24.8234C171.577 25.2055 172.028 25.5126 172.546 25.7446C173.065 25.9629 173.618 26.0721 174.204 26.0721H178.442V31.6402H174.204Z" fill="#F5F5F5"/>
<path d="M203.786 2.28499L194.144 31.6402H188.269L178.668 2.28499H185.341L191.196 21.8756L197.071 2.28499H203.786Z" fill="#F5F5F5"/>
<path d="M211.77 3.75889C211.77 4.27749 211.668 4.76196 211.463 5.21232C211.272 5.66268 211.006 6.05845 210.665 6.39963C210.323 6.72716 209.921 6.99328 209.457 7.19799C209.006 7.38905 208.522 7.48458 208.003 7.48458C207.485 7.48458 206.994 7.38905 206.53 7.19799C206.079 6.99328 205.683 6.72716 205.342 6.39963C205.015 6.05845 204.749 5.66268 204.544 5.21232C204.353 4.76196 204.257 4.27749 204.257 3.75889C204.257 3.25395 204.353 2.77629 204.544 2.32594C204.749 1.86193 205.015 1.46616 205.342 1.13863C205.683 0.797447 206.079 0.531327 206.53 0.340266C206.994 0.135557 207.485 0.0332031 208.003 0.0332031C208.522 0.0332031 209.006 0.135557 209.457 0.340266C209.921 0.531327 210.323 0.797447 210.665 1.13863C211.006 1.46616 211.272 1.86193 211.463 2.32594C211.668 2.77629 211.77 3.25395 211.77 3.75889ZM210.808 31.6402H205.178V9.71591H210.808V31.6402Z" fill="#F5F5F5"/>
<path d="M219.877 31.6402H214.248V0.995332H219.877V31.6402Z" fill="#F5F5F5"/>
<path d="M229.909 3.75889C229.909 4.27749 229.806 4.76196 229.602 5.21232C229.411 5.66268 229.145 6.05845 228.803 6.39963C228.462 6.72716 228.06 6.99328 227.596 7.19799C227.145 7.38905 226.661 7.48458 226.142 7.48458C225.624 7.48458 225.132 7.38905 224.668 7.19799C224.218 6.99328 223.822 6.72716 223.481 6.39963C223.153 6.05845 222.887 5.66268 222.683 5.21232C222.492 4.76196 222.396 4.27749 222.396 3.75889C222.396 3.25395 222.492 2.77629 222.683 2.32594C222.887 1.86193 223.153 1.46616 223.481 1.13863C223.822 0.797447 224.218 0.531327 224.668 0.340266C225.132 0.135557 225.624 0.0332031 226.142 0.0332031C226.661 0.0332031 227.145 0.135557 227.596 0.340266C228.06 0.531327 228.462 0.797447 228.803 1.13863C229.145 1.46616 229.411 1.86193 229.602 2.32594C229.806 2.77629 229.909 3.25395 229.909 3.75889ZM228.947 31.6402H223.317V9.71591H228.947V31.6402Z" fill="#F5F5F5"/>
</svg>
