<svg width="24" height="25" viewBox="0 0 24 25" fill="none" xmlns="http://www.w3.org/2000/svg">
<path d="M24 11.7577C24 18.2141 18.7253 23.4482 12.2172 23.4482C10.1519 23.4482 8.21182 22.9199 6.52297 21.9949L0 24.0664L2.12632 17.7923C1.05416 16.0315 0.436691 13.9638 0.436691 11.7569C0.437474 5.30044 5.71063 0.0664062 12.2187 0.0664062C18.7261 0.0679715 24 5.30122 24 11.7577ZM12.2164 1.93056C6.75462 1.93056 2.3118 6.33973 2.3118 11.76C2.3118 13.9106 3.01301 15.9015 4.19865 17.5215L2.96214 21.1708L6.76714 19.9617C8.33234 20.9884 10.2051 21.5863 12.2164 21.5863C17.6782 21.5863 22.1225 17.178 22.1225 11.7577C22.1241 6.33973 17.6789 1.93056 12.2164 1.93056ZM18.1673 14.4506C18.0937 14.3324 17.9012 14.2604 17.6132 14.1164C17.326 13.9724 15.904 13.2798 15.6403 13.1859C15.3742 13.0897 15.1817 13.0411 14.9891 13.3283C14.799 13.6156 14.2449 14.2604 14.0751 14.4529C13.9068 14.6447 13.7385 14.6689 13.4498 14.5273C13.161 14.3817 12.2297 14.0812 11.1262 13.1053C10.2677 12.3446 9.68781 11.4078 9.52033 11.1206C9.35051 10.8342 9.50311 10.6792 9.64633 10.5368C9.77546 10.4077 9.93511 10.2019 10.0799 10.0336C10.2247 9.86691 10.2724 9.74874 10.3687 9.557C10.4634 9.36526 10.4156 9.19857 10.3444 9.05379C10.2724 8.90979 9.69563 7.50111 9.45381 6.92746C9.21355 6.3546 8.97329 6.44929 8.80425 6.44929C8.63599 6.44929 8.44347 6.42582 8.25095 6.42582C8.05843 6.42582 7.74539 6.49547 7.48166 6.78268C7.21792 7.0699 6.47132 7.7625 6.47132 9.17274C6.47132 10.5846 7.50514 11.9455 7.64992 12.1364C7.79548 12.3266 9.64868 15.3154 12.5842 16.4627C15.5213 17.6092 15.5213 17.2265 16.0503 17.178C16.5809 17.1294 17.7595 16.4854 17.999 15.817C18.2401 15.1455 18.2401 14.5703 18.1673 14.4506Z" fill="#F5F5F5"/>
</svg>
